<svg xmlns="http://www.w3.org/2000/svg" viewBox="0 0 1635 735" width="1635" height="735">
  <defs>
    <mask id="m">
      <rect width="1635" height="735" fill="white"/>
      <polygon points="417,414 453,525 360,594 267,525 303,414" fill="black"/>
    </mask>
  </defs>
  <g fill="#fff">
    <!-- A with outlined star -->
    <g mask="url(#m)">
      <polygon points="360,15 15,720 186,720"/>
      <polygon points="360,15 534,720 705,720"/>
      <polygon points="360,261 417,414 582,423 453,525 498,684 360,594 222,684 267,525 138,423 303,414"/>
    </g>
    <!-- Z -->
    <path d="M 771,186 L 1110,186 L 1110,294 L 900,612 L 1110,612 L 1110,720 L 771,720 L 771,612 L 981,294 L 771,294 Z"/>
    <!-- I -->
    <rect x="1155" y="186" width="105" height="534"/>
    <!-- S -->
    <path d="M 1605,186 L 1410,186 C 1335,186 1305,246 1305,324 C 1305,390 1335,426 1425,444 L 1530,474 C 1605,495 1626,546 1626,615 C 1626,696 1578,720 1476,720 L 1314,720 L 1314,624 L 1470,624 C 1536,624 1560,594 1560,564 C 1560,525 1530,504 1464,486 L 1374,462 C 1314,444 1284,405 1284,345 C 1284,264 1335,294 1410,294 L 1605,294 Z"/>
  </g>
</svg>
